<?xml version="1.0" encoding="UTF-8"?>
<svg width="20px" height="17px" viewBox="0 0 20 17" version="1.1" xmlns="http://www.w3.org/2000/svg" xmlns:xlink="http://www.w3.org/1999/xlink">
    <!-- Generator: Sketch 47.1 (45422) - http://www.bohemiancoding.com/sketch -->
    <title>icon-online store</title>
    <desc>Created with Sketch.</desc>
    <defs></defs>
    <g id="1.0.0-Smile-Apps" stroke="none" stroke-width="1" fill="none" fill-rule="evenodd">
        <g id="1.6.4-Shopify-Configuration---Channels" transform="translate(-517.000000, -841.000000)" fill-rule="nonzero" fill="#555555">
            <g id="icon-online-store" transform="translate(517.000000, 841.000000)">
                <path d="M19.9151882,15.0739 L18.5233246,10.9123 L18.5233246,0.85 C18.5233246,0.37995 18.1423306,0 17.6709892,0 L2.32895234,0 C1.85846321,0 1.47661696,0.37995 1.47661696,0.85 L1.47661696,10.9123 L0.0856056222,15.0739 C-0.0737810939,15.5482 -0.00815126959,16.0344 0.262039046,16.40925 C0.533934032,16.7858 0.975443759,17 1.47661696,17 L18.5233246,17 C19.0244978,17 19.4668598,16.7858 19.7379025,16.4101 C20.0089451,16.03525 20.0728703,15.5482 19.9151882,15.0739 Z M16.8186538,1.7 L16.8186538,10.2 L3.18128772,10.2 L3.18128772,1.7 L16.8186538,1.7 Z M1.80732309,15.3 L2.94348615,11.9 L17.0573077,11.9 L18.1934708,15.3 L1.80732309,15.3 Z" id="Shape"></path>
                <path d="M6.875,7 L7.75,7 L12.125,7 L13,7 L13,3.66666667 L8.625,3.66666667 L8.625,2.83333333 C8.625,2.3725 8.233875,2 7.75,2 L6,2 L6,3.66666667 L6.875,3.66666667 L6.875,7 Z" id="Shape"></path>
                <path d="M8.70710641,7.29289359 C9.0976312,7.68341837 9.0976312,8.31658563 8.70710641,8.70710641 C8.31658163,9.0976312 7.68341437,9.0976312 7.29289359,8.70710641 C6.9023688,8.31658163 6.9023688,7.68341437 7.29289359,7.29289359 C7.68341837,6.9023688 8.31658563,6.9023688 8.70710641,7.29289359" id="path-1"></path>
                <path d="M12.7071064,7.29289359 C13.0976312,7.68341837 13.0976312,8.31658563 12.7071064,8.70710641 C12.3165816,9.0976312 11.6834144,9.0976312 11.2928936,8.70710641 C10.9023688,8.31658163 10.9023688,7.68341437 11.2928936,7.29289359 C11.6834184,6.9023688 12.3165856,6.9023688 12.7071064,7.29289359" id="path-1"></path>
                <polygon id="Shape" points="9 12 12 12 12 14 9 14"></polygon>
            </g>
        </g>
    </g>
</svg>