<svg width="300" height="300" viewBox="0 0 300 300" fill="none" xmlns="http://www.w3.org/2000/svg">
<circle cx="150" cy="150" r="150" fill="#FBF9F8"/>
<path d="M230 120.414L158.479 179.767C153.563 183.847 146.437 183.847 141.52 179.767L70 120.414L141.521 61.0605C146.437 56.9802 153.563 56.9802 158.48 61.0605L230 120.414Z" fill="#9CB3AB"/>
<path d="M158.479 61.0603C156.021 59.02 153.011 58 150 58V182.827C153.011 182.827 156.021 181.807 158.479 179.766L230 120.413L158.479 61.0603Z" fill="#9CB3AB"/>
<path d="M213.125 133.751V90.5712C213.125 87.2526 210.433 84.5625 207.113 84.5625H92.8869C89.5665 84.5625 86.875 87.2526 86.875 90.5712V133.751L142.304 179.903C146.762 183.616 153.237 183.616 157.696 179.903L213.125 133.751Z" fill="#ECF9FB"/>
<path d="M209.375 84.5687H150V186.635C152.842 186.635 155.683 185.67 158.001 183.739L215.625 135.733V90.8187C215.625 87.3669 212.827 84.5687 209.375 84.5687V84.5687Z" fill="#ECF9FB"/>
<path d="M230 120.413L158.479 179.767C153.563 183.847 146.437 183.847 141.52 179.767L70 120.413V204.722C70 212.055 75.9447 218 83.2781 218H216.722C224.055 218 230 212.055 230 204.722V120.413Z" fill="#38477E"/>
<path d="M158.479 179.767C156.021 181.807 153.01 182.827 150 182.827V218H216.722C224.055 218 230 212.055 230 204.722V120.413L158.479 179.767Z" fill="#38477E"/>
<path d="M158.48 179.767C153.563 183.847 146.438 183.847 141.521 179.767L134.001 173.525L74.2607 214.465C76.6289 216.658 79.7964 218 83.2789 218H216.723C220.205 218 223.372 216.658 225.74 214.465L166.001 173.525L158.48 179.767Z" fill="#38477E"/>
<path d="M225.74 214.465L166 173.525L158.479 179.766C156.021 181.806 153.01 182.827 150 182.827V218H216.722C220.204 218 223.372 216.658 225.74 214.465Z" fill="#38477E" fill-opacity="0.58"/>
<path d="M160.156 114.25H115.781C113.192 114.25 111.094 112.151 111.094 109.562C111.094 106.974 113.192 104.875 115.781 104.875H160.156C162.745 104.875 164.844 106.974 164.844 109.562C164.844 112.151 162.745 114.25 160.156 114.25Z" fill="#999999"/>
<path d="M184.219 133H115.781C113.192 133 111.094 130.901 111.094 128.312C111.094 125.724 113.192 123.625 115.781 123.625H184.219C186.808 123.625 188.906 125.724 188.906 128.312C188.906 130.901 186.808 133 184.219 133Z" fill="#999999"/>
<path d="M164.844 109.562C164.844 106.974 162.745 104.875 160.156 104.875H150V114.25H160.156C162.745 114.25 164.844 112.151 164.844 109.562Z" fill="#999999"/>
<path d="M184.219 123.625H150V133H184.219C186.808 133 188.906 130.901 188.906 128.312C188.906 125.724 186.808 123.625 184.219 123.625Z" fill="#999999"/>
</svg>
